<?xml version="1.0" standalone="no"?>
<!DOCTYPE svg PUBLIC "-//W3C//DTD SVG 20010904//EN"
 "http://www.w3.org/TR/2001/REC-SVG-20010904/DTD/svg10.dtd">
<svg version="1.0" xmlns="http://www.w3.org/2000/svg"
 width="512.000000pt" height="512.000000pt" viewBox="0 0 512.000000 512.000000"
 preserveAspectRatio="xMidYMid meet">
<g transform="translate(0.000000,512.000000) scale(0.100000,-0.100000)">
<path d="M1798 4250 c-296 -50 -634 -190 -886 -368 -72 -51 -105 -102 -213
-327 -245 -513 -411 -1177 -474 -1895 l-14 -165 112 -110 c300 -296 726 -481
1218 -529 l57 -6 87 116 c47 64 85 117 83 119 -2 2 -38 17 -80 34 -178 70
-372 180 -520 293 -76 57 -323 291 -288 271 8 -4 65 -41 125 -81 265 -175 572
-300 905 -366 219 -44 384 -59 650 -59 266 0 431 15 650 59 335 67 639 190
905 366 61 40 117 77 125 81 35 20 -212 -214 -288 -271 -148 -113 -342 -223
-520 -293 -42 -17 -78 -32 -80 -34 -2 -2 36 -55 83 -119 l87 -116 57 6 c492
48 918 233 1218 529 l112 110 -14 160 c-54 603 -171 1142 -352 1615 -61 160
-166 385 -232 498 -39 68 -51 79 -146 142 -115 75 -317 181 -440 230 -112 45
-296 96 -390 109 -44 6 -92 13 -107 16 -25 4 -31 -1 -54 -46 -14 -28 -24 -52
-22 -54 2 -1 52 -17 113 -34 321 -94 551 -213 783 -407 51 -42 91 -79 88 -81
-2 -2 -68 28 -146 67 -491 246 -886 340 -1430 340 -544 0 -939 -94 -1430 -340
-78 -39 -144 -69 -147 -67 -7 7 193 165 292 230 171 112 381 206 590 262 55
15 101 29 103 30 6 5 -48 105 -56 104 -4 0 -55 -9 -114 -19z m218 -1513 c298
-153 296 -632 -4 -779 -58 -29 -76 -33 -147 -33 -66 0 -90 5 -137 27 -162 76
-260 278 -228 469 25 147 125 282 243 328 75 30 202 25 273 -12z m1359 12
c119 -44 220 -179 245 -328 32 -191 -66 -393 -228 -469 -47 -22 -71 -27 -137
-27 -71 0 -89 4 -147 33 -254 125 -306 498 -100 708 44 44 100 79 152 95 51
15 158 10 215 -12z"/>
</g>
</svg>
