<svg xmlns="http://www.w3.org/2000/svg" viewBox="0 0 512 512"><circle cx="256" cy="256" r="48" class="st0"/><path d="M96 160l-48 48v96l48 48zM416 160v192l48-48v-96zM304 48h-96l-48 48h192z" class="st0"/><g><path d="M416 400v-48c0-5.6-.9-10.9-2.3-16-7.1-27.6-31.9-48-61.7-48-35.3 0-64 28.7-64 64 0 29.8 20.4 54.6 48 61.7 5.1 1.3 10.4 2.3 16 2.3h48c0 8.8 7.2 16 16 16s16-7.2 16-16-7.2-16-16-16zm-32-16h-64v-8c0-30.9 25.1-56 56-56h8v64zM80 416c0 8.8 7.2 16 16 16s16-7.2 16-16h48c5.6 0 10.9-.9 16-2.3 27.6-7.1 48-31.9 48-61.7 0-35.3-28.7-64-64-64-29.8 0-54.6 20.4-61.7 48-1.3 5.1-2.3 10.4-2.3 16v48c-8.8 0-16 7.2-16 16zm48-96h8c30.9 0 56 25.1 56 56v8h-64v-64zM96 112v48c0 5.6.9 10.9 2.3 16 7.1 27.6 31.9 48 61.7 48 35.3 0 64-28.7 64-64 0-29.8-20.4-54.6-48-61.7-5.1-1.3-10.4-2.3-16-2.3h-48c0-8.8-7.2-16-16-16s-16 7.2-16 16 7.2 16 16 16zm32 16h64v8c0 30.9-25.1 56-56 56h-8v-64zM432 96c0-8.8-7.2-16-16-16s-16 7.2-16 16h-48c-5.6 0-10.9.9-16 2.3-27.6 7.1-48 31.9-48 61.7 0 35.3 28.7 64 64 64 29.8 0 54.6-20.4 61.7-48 1.3-5.1 2.3-10.4 2.3-16v-48c8.8 0 16-7.2 16-16zm-48 96h-8c-30.9 0-56-25.1-56-56v-8h64v64z" class="st0"/></g><g><path d="M208 464h96l48-48H160z" class="st0"/></g></svg>